<svg xmlns="http://www.w3.org/2000/svg" xmlns:xlink="http://www.w3.org/1999/xlink" width="1500" zoomAndPan="magnify" viewBox="0 0 1125 1124.99995" height="1500" preserveAspectRatio="xMidYMid meet" version="1.0"><defs><g/><clipPath id="bdd8529c93"><rect x="0" width="797" y="0" height="913"/></clipPath><clipPath id="766a07dd2d"><path d="M 21 281 L 774 281 L 774 843 L 21 843 Z M 21 281 " clip-rule="nonzero"/></clipPath><clipPath id="60d8944fbb"><rect x="0" width="797" y="0" height="843"/></clipPath></defs><g transform="matrix(1, 0, 0, 1, 161, -0.000000000000114957)"><g clip-path="url(#bdd8529c93)"><g fill="#000000" fill-opacity="1"><g transform="translate(0.471071, 665.203272)"><g><path d="M 19.609375 -98.015625 L 19.609375 -627.3125 L 98.015625 -627.3125 L 254.859375 -286.703125 L 254.859375 -627.3125 L 352.875 -627.3125 L 352.875 -98.015625 L 274.453125 -98.015625 L 117.625 -438.640625 L 117.625 -98.015625 Z M 19.609375 -98.015625 "/></g></g></g><g fill="#000000" fill-opacity="1"><g transform="translate(372.949833, 665.203272)"><g><path d="M 128.25 -343.0625 L 78.421875 -98.015625 L 19.609375 -98.015625 L 137.234375 -627.3125 L 245.046875 -627.3125 L 401.875 -98.015625 L 294.0625 -98.015625 L 221.359375 -343.0625 Z M 138.046875 -392.078125 L 206.65625 -392.078125 L 165.8125 -530.109375 Z M 138.046875 -392.078125 "/></g></g></g></g></g><g transform="matrix(1, 0, 0, 1, 169, 282)"><g clip-path="url(#60d8944fbb)"><g clip-path="url(#766a07dd2d)"><g fill="#000000" fill-opacity="1"><g transform="translate(0.53628, 950.429301)"><g><path d="M 20.890625 -616.359375 L 20.890625 -668.609375 L 376.09375 -668.609375 L 153.21875 -156.703125 L 376.09375 -156.703125 L 376.09375 -104.46875 L 20.890625 -104.46875 L 243.765625 -616.359375 Z M 20.890625 -616.359375 "/></g></g><g transform="translate(397.518559, 950.429301)"><g><path d="M 20.890625 -104.46875 L 20.890625 -668.609375 L 104.46875 -668.609375 L 271.625 -305.578125 L 271.625 -668.609375 L 376.09375 -668.609375 L 376.09375 -104.46875 L 292.515625 -104.46875 L 125.359375 -467.5 L 125.359375 -104.46875 Z M 20.890625 -104.46875 "/></g></g></g></g></g></g></svg>